<svg id="Layer_2" data-name="Layer 2" xmlns="http://www.w3.org/2000/svg" viewBox="0 0 1920 926"><defs><style>.cls-1{fill:#fff;}</style></defs><path class="cls-1" d="M758.8,8.61c5.13,8.38,16.25,2,22.05,9,2.93,3.55,14.95,7.07,21,4.86,8.54-3.11,16.81-1.52,25.88-.3-12.7,8.49-31.32,6.39-39.93,22.41.14,5.27,7.17,1.56,8.47,6.14-1,2.57-4.49,1.08-6.79,3.15.85,3.74,6.65,5.54,5.16,10.54-9.25,1.69-13.24,12-23.44,13.93,4.21,3.37,9.33,5.08,11.44,9.91-2.78,16.27-17.3,16.85-28.58,19.43-14,3.18-28.68,2.57-39.78,14.11-2.42,2.52-7.31,3.87-11,3.75-20.21-.69-27.51,12.64-32.23,28.85-2.29,7.85-6.45,10.75-14.69,8-12.62-4.23-26-7.32-28.78-23.31-.68-3.87-1.93-4.36-5.82-5.32-7-1.73-9.1-9-10.26-15.43-1.78-9.8,6.24-9.59,12.49-11.24,3.08-.81,2.87-4,3.2-6.63-6.21-7.68-16.92-2.33-23.74-8.22-11.3-30.59-23.65-37.06-59.34-32.83-12.61,1.5-24-2.56-33.49-13.58,12.68-11.35,28.92-1.63,41-9.36,1.62-8.94,2.73-18.39,15.83-15.82,22.07-4.22,44.74,2.19,66.73-3.93,7.32-2,13.72,3.76,20.87,3.44,3.95-2.66-1.83-3.88.29-7.46,7.77,0,16.64-1.64,25.28,1,5.71,1.74,8.73.22,10.46-5.1Z"/><path class="cls-1" d="M499.53,885.08c-7.33-3.41,4.94-14.71-6.59-16.44,1.05-4.28,5.51-2.84,8.14-4.91,1.25-5.35-4.52-5.18-7.35-9.08,6.06-3,1.11-13.11,11.13-15,4.21-.81,3.9-7.41,2.29-10.44-7.88-14.83-3.25-29.21,1.33-43.22,7.62-23.31,7.39-47.72,10.78-71.58,1.15-8.1,2.84-16.43,2.76-25.07-.13-13.44-4.46-22.21-16.14-28.65-9.78-5.38-16.66-12.27-19.88-25-3.81-15-13.64-28.51-20.78-42.7-2.92-5.81-7.16-11.58-.1-17.69,2.77-2.4,2.32-5.56.79-9-3.09-7,.6-14.53,4.58-18,15.29-13.49,16-29,9.65-44.53,1.93-7.86,8.49-8.43,11.54-12.83,10.84-15.61,18.19-18.81,40.07-10.42,5.46,2.1,12.2,5.86,16.79,4.3,15.22-5.18,21,6.48,29.32,14,7.72,6.92,13.43,16.67,25.48,17.34,21.92,1.22,26.91,19.06,25.84,40,28.65,7,56.78,15,81,33.56,2.75,13.38.9,25-9.83,35.83-6.59,6.68-11.06,16.4-9.4,27.31,1.56,10.18-3.54,19.27-5.59,28.88-3.57,16.69-18.42,20.75-30.52,26.92-9.91,5-13.33,11.2-16.38,21.93-6.67,23.49-18.73,44.54-46.26,54.29-2.24,3.19,7.07,10.68-.57,14.11-14.47,6.5-24.83,20.07-41.16,24.16,8.1,14.19-6,19.15-12.81,27.41-3.22,6.51,5.56,8.4,5.19,14.76-5.87,8.1-15.66,15.12-15.5,27.58C515.14,905.14,512.58,904.42,499.53,885.08Z"/><path class="cls-1" d="M1594.33,650.46c7.19-7.31,9-17.59,21.39-21.76,4.44,1.42,11.52,6.57,19.64,3.48,2.88,8.1-3.73,12.18-4,18,4.53,10.56,14.5,12.22,23.79,14.95,13.05-9.67,3.23-26.21,12.13-40.77,4.44,19.38,15.18,32.24,21.19,48,4.54,11.88,16.68,22.65,25.8,33.61,14.53,17.45,16.81,40.77,5,60.06a126.43,126.43,0,0,0-10.79,23.17c-4.19,11.48-13.32,16.3-26.15,16.46-15.31.19-29-.14-34.73-18.59-.53-1.72-5.6-16-17.15-8.69-3.89,2.47-2.91-4.31-4.47-6.64-6.12-9.11-14.7-13.21-25.31-11.19-11.37,2.17-22.89,2.55-33.45,9.73-10,6.76-23.76,4-35,10.64-5,3-13.9-.74-11-10.64,3.22-11.07-2.6-20.29-5-30.21-.62-2.53-2.28-4.79-3.09-7.3-7.43-23.12-2.64-38.2,20-45.08,17.76-5.41,26.3-18.77,35.53-31C1576.81,645.72,1583.94,644.14,1594.33,650.46Z"/><path class="cls-1" d="M565.05,119.94c-8.6-8-20.33-8.56-30.39-13L511.79,92.21c-15.92-3.43-26.51-18.74-43.6-19.56-10.24,2.16-20.72,5.29-30.92,1.93-5.25-1.73-8.75-.35-12.89,1.58-4.51,2.12-8,5.45-7.71,10.47.39,6.08,4.68,9.14,10.69,9.49,5.78.33,12.59-1.09,12.71,8.09,8.79,5.23-2.59,10.68.17,16,1.5,9,6.37,7,11.67,3.55,3.59-4.15,4.09-9.6,6.11-14.41,3.38-8,15.84-15,21.86-10.22,8.41,6.67,20,6.73,27.63,14.92-2.51,8.22-12.89,12.16-11.31,22,5.25,0,11.2-1.55,15.2,2.55,6.47,6.63,15.79,6.25,23.08,10.66,5.66,3.43,11.75,4,15.56-2.48s.52-11.24-5.59-14.43c-4.52-2.37-9.52-4.31-9.94-11.83,9.39,0,16.89,4.3,24.47,8.78C559.34,124.72,566.55,125.39,565.05,119.94Z"/><path class="cls-1" d="M1487.78,545.69c16.5-9.26,30.16-22.13,41.62-37.65,8,5.39,8.63,10,7,20.77-2.12,14.24-5.62,27.83-9.16,41.59-2.31,9-5.74,10.92-15.24,6.91C1489.2,567.66,1488.48,567.85,1487.78,545.69Z"/><path class="cls-1" d="M281.05,112.15c-4.67-3.91-12.08-2.17-15.94-7.74l6.15-1.52c-2.6-7.63-12.38-13.14-6.26-22.56,3-4.27,7.56-3.8,11.94-3.86,13.47,5.52,28.69,2.65,42,8.76-2.2-12.46,9.06-8.31,14.12-13.17,1.29,11,1,21.62,15.36,20.3,7.55,2.92,13.33,6.34,3.91,14-12.71,4.95-26.92-6.3-39.18,3.64C302.57,112.07,291.43,106.42,281.05,112.15Z"/><path class="cls-1" d="M1140.29,716.25c-14.54-14.28,1.44-29.21-1.4-44.5-3.42-18.44,22.58-19.3,26.42-38.92,5.9,11,6.48,18,4,26.43-4.69,15.69-7.73,31.87-12.28,47.6C1154.21,716.53,1153.53,716.33,1140.29,716.25Z"/><path class="cls-1" d="M1471.63,594.06c-13.16-2.15-19.06-12.74-25.31-22.48a258.38,258.38,0,0,1-15.16-27.35c-4.31-8.94-12.08-15.22-18.66-24.57,18.51-4.25,21.35,13.14,31.24,19.09,4,1.08,6.34,4.1,8.25,7.52,6.65,2.28,7.11,8.46,9,13.89s8.44,5.58,12.75,10.61a73.41,73.41,0,0,0-2.25,23.47Z"/><path class="cls-1" d="M1662.84,275.59c6,17.17-.51,33-6,49.3-15.29-1.31-27.14,16.84-45,9.95-2.21,4,1.06,11.49-6.18,14.31-4.86-2.25-4.71-7.23-6.82-10.72,6-8.35,12.11-15.13,22.17-16.44s16.58-9.59,25.54-13.37c6.27-2.64,7.81-9.52,8.32-16.73.48-6.67-4-14.74,3.91-20.06A7.06,7.06,0,0,1,1662.84,275.59Z"/><path class="cls-1" d="M870,179.63c6.54-7.74,18.46-7.89,18.16-.71-.58,13.91,11.09,18.36,16.43,27.34,6.3,10.61,5.86,16.18-5.51,17.06-8.48.66-16.62,3-25.26,4.21-1.7-9.74,2.84-16.7,7.69-22.88-2.66-5.46-7.33-6.62-11.23-8.82l-1.94-2.22C868.18,188.86,865.69,183.84,870,179.63Z"/><path class="cls-1" d="M771.33,125.52c3.4-2.48,6-4.82,6.31-4.54,14.71,13,33.53-9,49.49,4.94-7.77,13-19.58,12.21-30.78,14.52C781.78,143.44,781.81,128.48,771.33,125.52Z"/><path class="cls-1" d="M276.94,76.47c-2.69,5.28-7.66,3.48-11.94,3.86-4.86-.11-9.61,1.64-12.53,4.9-9.73,10.86-17.82,8-25.9-1.8,1.56-4.89,5.87-8.61,5.22-16.1C247,72.35,262.85,68.81,276.94,76.47Z"/><path class="cls-1" d="M1796.29,853.09c8.07-16.33,28.61-17.85,31.63-35.32,8.1,2.17,11.94,5,7.16,12.57s-11.28,13.8-15.83,21.8S1806.19,858.17,1796.29,853.09Z"/><path class="cls-1" d="M499.53,885.08c7.38,2.09,10.42,9.64,17,13.38,4.49.37,5.5-7.09,10.83-5.61,5.42,8.24,12.4,14.64,22.85,18-21.12,7.32-41.64.63-52.56-16.55C495.59,891.09,499.07,888.22,499.53,885.08Z"/><path class="cls-1" d="M1237.49,82.71c-9.93.8-18.55,4.55-27.28,9.47-9.24,5.21-10.63,10.61-4.23,18.61-5.4,3.38-10.13,1-13.51-.71-4-2-9.61,1.65-12.53-4.66,15.55-14,32.37-26,53.72-30.11C1235.86,77.3,1239.89,78.34,1237.49,82.71Z"/><path class="cls-1" d="M1452,546.27a11.91,11.91,0,0,1-8.25-7.52c4.32-9-4.51-15.77-4.11-24.11-2.35-4.58-3.31-8.48,4.11-8.15,11.77,9.5,11.77,9.5,18.87,35.9C1460.43,547.2,1453.33,539.23,1452,546.27Z"/><path class="cls-1" d="M1553.2,579.79c-3,4.08-1.6,8.57-6.12,9.21-6-.7-7.44-17-2.52-33,6,4.09,12.6,4.32,20.56,2.13-16.49,9.51,1,20.37-2.74,29.48C1556.64,588.3,1556.08,583.3,1553.2,579.79Z"/><path class="cls-1" d="M587.67,219.27c1.85-3.59,5.11-3.52,8.44-3.26-.91,6.28-.33,13.23,6.45,14.6,10.64,2.15,9.21,10.79,12.68,18-12,.69-21.31-8-32.13-4.25C580.94,234.19,596.88,229.36,587.67,219.27Z"/><path class="cls-1" d="M1471.46,594.24c15.87,3.09,33.63-.29,50.27,13-19.72,6.33-33.19-3.06-47.56-6.39-2.61-.61-2.63-4.17-2.54-6.84Z"/><path class="cls-1" d="M870.29,195.83c-1.5,18-1.5,18-21.7,22-2.46-2.29-.71-4.71-.48-7.19s-.59-5.07-1-7.93c3.88-4.57,9.2-6.68,15-7.83,2.91-1.15,5.73-1.5,8.2,1Z"/><path class="cls-1" d="M782.69,88.28c-6.18-6-17.36-.67-22.31-9.53,2-5.48,6.11-6.65,11-5.94,2.88.42,6.57,3.37,7.26-2.15,1.52-12.34,9.81-6.43,16-6.22l1.29,7C783,70.29,784.16,80.33,782.69,88.28Z"/><path class="cls-1" d="M1005.62,44.4a48.41,48.41,0,0,0-4.87,3.17c-14.37,11.84-14.36,11.85-27-3.07,1.31-6.66,8.23-4.66,11.88-7.71l8.05-4.17C998.92,35.28,1007.87,34.17,1005.62,44.4Z"/><path class="cls-1" d="M1434.07,38.73c-13.67,7.11-23.67-5.06-35.53-3.92C1410.92,19.48,1418.28,20.15,1434.07,38.73Z"/><path class="cls-1" d="M277.35,359a4.9,4.9,0,0,0,3.7-3.94c10-1.92,8.91,7.06,11.85,12.08,2.68,12,13.41,20.52,16,37.77C294.91,388.29,283.47,375.56,277.35,359Z"/><path class="cls-1" d="M1844.16,798.06l18.21,1.47-15.72,26.06C1839.26,815.92,1835.05,807.78,1844.16,798.06Z"/><path class="cls-1" d="M1575,490.68c12,9.29,6.73,17.65-1.06,26.43-7.18-2.47-8.09-13.83-18.22-9.37,2.93-12.06,17.35-7,19.44-17.23Z"/><path class="cls-1" d="M1682.15,62.53c-15.39,8.35-28.23,6.57-42.71,3.14C1647.35,57.36,1656.13,56.91,1682.15,62.53Z"/><path class="cls-1" d="M289.05,67.82c-8.44,0-18.2,4-24.25-8.58,11.71-3.81,21.93-8.7,31.71,1.84C298.72,68.52,290.88,64.85,289.05,67.82Z"/><path class="cls-1" d="M364.55,71.91c14.08,0,11.8,12.79,16.05,20.47-9.32-4.77-21.48-1.29-28.58-10.5C357.2,80.86,360.26,75.59,364.55,71.91Z"/><path class="cls-1" d="M1443.74,506.49c-3.77,1.51-4,4.81-4.11,8.15-13.53-15.14-12.4-33.53-11.44-51.88,7.86,4.58-.75,15.35,7.44,19.8C1437.07,491,1440.31,498.76,1443.74,506.49Z"/><path class="cls-1" d="M1662.84,275.59l-4-3.76c5.57-3.09,2.49-9.6,6-14.8,5.34,5.24,13.59,6.16,17.71,13.68C1676.88,278,1671,281.14,1662.84,275.59Z"/><path class="cls-1" d="M452.19,20.43c-6.69-7.66-13.32,3.05-20,.06.3,4,8.88,3.77,4.8,10.55-3.21,5.31-6.45,1.9-9.8,1.58-8.26-.78-16.29-2.26-22.78-8.07l-11.81.07c-3.07,10.34,5.28,12,13.89,13.94-4.15,2.18-7.63,1.5-6.3,5.63,12.3,1.17,24.39.27,36.18-3.75l12-8c4.48-4.43,11.59,1.31,15.82-4.09C462.19,22.69,454,26.44,452.19,20.43Z"/><path class="cls-1" d="M497.39,422.67c-17.75,0-28.41-18.77-47.1-16.79C471,396.74,482.7,414.08,497.39,422.67Z"/><path class="cls-1" d="M1547.54,458.62c-3-9.73-2.66-18.75,5.19-26.81,10.49,7.12,5.9,15,2.67,22.71,2.08,2.91,2.39,6.25-.76,8C1551.28,464.33,1549.06,461.54,1547.54,458.62Z"/><path class="cls-1" d="M1698,819.39c.29,7.23,3.88,15.74-5.07,17.1-10.23,1.57-10.3-9-15.64-17.81A41.35,41.35,0,0,0,1698,819.39Z"/><path class="cls-1" d="M505.56,423.74c13.88.89,13.88.89,24,8.53C512.89,439,512.89,439,505.56,423.74Z"/><path class="cls-1" d="M289.05,67.82l7.46-6.74c11.2,1,22.48-2.75,36.62.69C317.3,69.26,303.22,68.82,289.05,67.82Z"/><path class="cls-1" d="M181.37,192c8.81-.72,15.81,1,15.87,11.91-10.77,9.37-10.76,9.36-13.55-2.86C183,198,182.15,195,181.37,192Z"/><path class="cls-1" d="M603.5,92.26c9-.42,20.17-7.08,23.74,8.22C617,104.59,608.2,104.28,603.5,92.26Z"/><path class="cls-1" d="M985.64,36.79c-2.71,4.5-7.85,5.24-11.88,7.71L957.19,37C968.23,28.42,976.91,38.27,985.64,36.79Z"/><path class="cls-1" d="M1555.17,468.61c.73-4.09,1.22-9.15,7.68-3.64a13,13,0,0,0,8.36,3.49c3.64,1.24,3.94,3.89,3.92,6.69-9,9.44-13.87.45-19.91-3.27C1555.16,470.79,1555.14,469.7,1555.17,468.61Z"/><path class="cls-1" d="M1590,566.35c-7.9-11.67-2.57-18.91-.68-29C1599.86,548.11,1590.34,555.89,1590,566.35Z"/><path class="cls-1" d="M1639,562.5c-2.19,4.68-5.84,7.89-9.59,10.56-7.59-3.06-6.36-9.18-6.78-14.6-6.19-.89-12.7-5-18,1.58,6.52,13.09,17,20.57,30.71,25.67,8.79,3.27,13.68,11.71,7.38,24.57,10.53-7.94,14.46,2.09,21,3.91,8.84,2.46,10.93-9.58,19-7.75,9.47,2.94,12.35,18,24.6,15C1696.18,588,1671.94,570.05,1639,562.5Z"/><path class="cls-1" d="M1236.45,82.71l-3.83-7.4c10.8,1.27,21.76-3.58,32.74,1.68C1255.69,79,1245.82,79.76,1236.45,82.71Z"/><path class="cls-1" d="M37.75,187.61l4.07,3.9c-6.59,7.2-16.21,4.47-24.42,7.16C21.5,190,29,187.69,37.75,187.61Z"/><path class="cls-1" d="M1332.09,490.66c6.87,6.54,10.93,13.56,4.58,24.44-8.15-8.52-6.08-16.6-4.34-24.63Z"/><path class="cls-1" d="M1555.22,478.7c7.37-2.5,11.6,11.24,19.91,3.84l-.12,8.14.16-.17c-4.37,0-8.76-.07-12.71,2.51C1557.42,489.3,1555.61,484.37,1555.22,478.7Z"/><path class="cls-1" d="M547.69,259.6l4.23-4.32,18.3,1c-6.88,8.4-16.39,6.88-23,11.72C544.78,264,547.29,262,547.69,259.6Z"/><path class="cls-1" d="M1714.62,582.42c3.11-.13,6.17-.12,7.47,3.56-6.56,3.54-11.87,14-22,3C1704,584.19,1712.19,588.6,1714.62,582.42Z"/><path class="cls-1" d="M1427.85,56.94c-7.33,6.73-15.95,2.18-24,2.73C1411.78,58.07,1418.2,43.25,1427.85,56.94Z"/><path class="cls-1" d="M1438.18,46.19c9.57-10.63,18.25-7.19,27-2.86Z"/><path class="cls-1" d="M1762.41,155.69c7.83.68,13.93-6.26,23.32-4.74-4.11,6.46-9.86,9.69-15.89,12.61C1768.81,159.56,1762.88,160.21,1762.41,155.69Z"/><path class="cls-1" d="M1193.36,25.86l22.13-4.38C1210,31.72,1210,31.72,1193.36,25.86Z"/><path class="cls-1" d="M1332.33,490.47l-.23.09a.34.34,0,0,1,0,.1Z"/><path class="cls-1" d="M1041.51,307.36c-.06.66-.09,1.32-.2,2-.45,2.72-3.48,6.44-4.18,5.35-5-7.73-16.17,4.39-19.56-6.48,1.63-4.66,4.32-8.87,4.26-14.2-.09-7.39,4.73-2.84,7.7-2.69C1032.49,297.43,1038.67,301.15,1041.51,307.36Z"/><path class="cls-1" d="M1885.73,110.2a102.5,102.5,0,0,0-45.84-10.39c-20.69.07-41.36,2.52-62.07.38-4.51-.47-10.2,2-13.27-2-6.64-8.48-15.56-6.36-23.76-5.94a80.51,80.51,0,0,1-32.88-5.45c-15.62-5.84-35-13-47.84-5-18.19,11.27-38-1-54.4,10-1,.64-4-.61-5.21-1.82-8-7.79-20.42-8.32-26.85-18.31-9.51,6.19-19,10.39-28.54,7-11.1-3.92-23-1.83-33.73-6.22h0c-9.53-2.26-18.34,5-28.54,3.69l-.51.17c1.35,1.63-1.12.54-.72-.37a18.89,18.89,0,0,1-4.17-1.31l33.91-10.3c-4.06-9.34-12.59-11.1-21.19-11.38-5-.17-9.92,2.19-15.21-.43-10.75-5.32-21.34-5.48-31.59,2-4.46,3.26-10.26,1.84-15.47,2.43-8.2-.89-16,1.43-24,2.73-13.79,0-27.12,2-38.83,9.88-6.61,4.43-13.8,2.31-20.77,2.86-8.26,3.2-13.71,6.9-2.08,13.08.13.06,1,3.09-.68,1a34.29,34.29,0,0,0-5-3.12c-4.93-2.35-10.28-1.31-15.47-1.7-24.7-1.85-27.28-2.05-25.22,14.44-1.28-4.5-3.39-9.93-3.53-15.75-23.74-.3-31.49,5.38-31,24.92-15-6-29.52-5.62-44.65-.79-21.83,7-47.09-2.86-64.72,13.57-10.67-3.5,1-6.52-2.78-9.58-3.8-.36-9.55-1.94-10.62,2.25-3,11.82-13,10.74-21.1,13.21,5.13-7.74,4.06-13.2-5.87-15.45-12.73-2.89-27-3.12-37.86-9.27-20.22-11.41-39.44-5.25-59.2-1.9-6,1-13.2-1.84-17.94,3.86C978,123.51,954,138.08,927.71,149.28c1,2.91,1,5.47,2.34,6.52,6.06,4.95-3.32,12.79,3.83,17.65,8.53,5.78,13.06-2.22,19.36-4.56,5.88-2.17,8.55,1.14,8.53,7,3.66,6.21,4.2,11.49,1.53,18,10.44-2.33,21-3.41,26.72-13.92a10.62,10.62,0,0,1,3.29-8.91c2.29-2.19,5.93-3,6.82-6.62-8-12.63-7.66-16.14,3.73-23.27,5.53-3.47,11.29-5.83,15.25-11.86,4.46-6.78,10.74-6.46,16.55-.35-5.43,7.33-13.88,10.1-19.86,15.53-4.53,15.8,14.73,20.68,15,34.7-7.07,1.72-18.64-2.47-17.63,11.71.1,1.42-2.18,4.36-3.21,4.3-12.41-.81-23.51,8.18-36.18,4.74-5.56-.51-11.44,4.81-17-1.52-1.78-5.8,5.09-13.62-2.81-19.09-16.6,1.45-5.32,14.5-8.62,20.89-25,10.15-40.13,37.25-69.28,36-.14,6.68,3,6.56,5.3,7.51,8.88,3.65,15.15,9.75,12,19.81-3.71,11.74-13.72,7.94-21.74,6.13-6.65-1.5-12.81-3.59-19.68,3,4.23,8.19,0,16.74-1,25.64-1.26,12,13.3,13.4,17.93,22.58-5.59,11.78-21.18,17.14-22,31.81-.49,9.29-6.11,13.4-12.69,18.52-14.68,11.42-25.05,27.58-22.72,45.75,1.48,11.6.37,21.83-1.12,32.76-1.77,13.05-.45,25.44,11,34.44,4.8,3.77,6.71,9.35,9.73,14.36,7.07,11.72,16.6,27.23,30.47,24.61,14.25-2.69,29.33.07,43.44-7.55,15.08-8.14,18.32-5.59,28.3,9.45C951.78,522,956.59,526.57,953,544c-.67,3.21-2.51,6.22-2.89,9.43-.88,7.36-1,14.86,5.66,20,11,8.5,13.06,22,15,33.55,1.75,10.2,5.06,21.22-2.46,33.57-6.7,11-7.63,26.46.92,41.14,13.81,23.71,11.19,54,28.18,76.94.35.47.21,1.29.32,1.94,3.52,20.22,3.51,20.2,22.87,15.22,3.17-.82,6.43-2.09,9.6-1.94,13.41.66,21.08-7.67,30.14-16,15.35-14.11,14.82-37.45,31.55-50.34,2.42-1.86,1.23-6.35-.34-9.4-7.18-13.95,1-24.53,11-29.83,18-9.52,19-22.85,15.13-39.54-.88-3.82-1.43-7.66-2.55-11.51-5.77-19.83-5.18-38.3,9.76-55.06,8.39-9.41,17.62-18,25.71-27.59,14-16.57,24.22-35.14,26.58-58.39-14.16,2.95-25.63,8.1-38,8.61-2.41-4.22-7.22-7-4.59-12.13,11.86-4.91,24.19-8.37,34.75-14.75,16.07-9.71,34.16-17.35,44.8-34.25,9.79-15.55,9.4-17-5.41-28.62h0c-4.82-1.46-2.59-7.15-6.69-10.4-6.56,7.45-14.11,17.37-24.46,6.36-7.23-7.67-13.44-16.81-16.24-27.32-.88-3.28,2.21-5.86,6.88-6.92,5.9,6.89,9.86,16.38,19.75,20.42,4.25,1.73,6.66,4.46,12.11,1.46,7.63-4.21,7.78,3.13,8.79,8,9.82.35,20.85,4.57,29,2.26,21.24-6,28.52,7.13,36.43,21.13,4,7,10.14,8.83,17.46,7.21.93,30.34,13.55,55.37,23.31,80.5,8.64,1.28,11.74-5.26,17-7.29,1.2-13.52-6.21-31,4-39.78,17.79-15.39,28.3-41.85,55.29-42.39,11.12,12.1,19.84,24.47,17.6,39.85,7.89,4.41,10.47-7.29,17.88-2.47.42,5.31.88,11.15,1.34,17,5.73,5.38-5.18,17,7.44,19.8.48-5.39,2.78-9.94,6.46-14.2,12.38,4.71,15.92,19,27.67,25,2.27-1.71,4.88-3.55,7.35-5.56,17.49-14.21,18.41-23,4.51-41.09a69.3,69.3,0,0,1-6.67-9.64c-6.67-12.79.48-22.31,16.4-22.07,2.72,2.33,5.41,2.22,8.08-.07,6.56-3.15,12.89-6.91,19.7-9.35,34.39-12.35,46.34-47.66,26.46-78.67-.56-.87-.07-2.4-.07-4l12.17-10.8c-8.5-2.49-16.55-2.87-20.38-11.81,7.77-2.63,10.4-11.33,19.06-12.27.16,3.06.32,6,.49,9.1,5.22.5,10.13-3.61,16.68,0-2.67,11.09,18.07,15.27,5.38,32,10.32-3.28,17.11-3.57,19.56-10.48.43-9.18-8.08-14.59-7.18-24.19,6.59-7,12.72-21,21.75-19.92,12.9,1.6,15.93-5.36,21.63-12.29,5.88-7.15,12.48-13.7,18.76-20.53s3-17.52,9.55-26.49c7.61,11.86-.79,25.4,7.6,36.69.91-16.7,9.05-31.14,1.84-45.85-5.22-3.39-5.72,5-10.8,3.61-4.32-2-5-11.11-13-8.65s-9.64-3.2-12-6.74c23-28.44,51.49-31.51,83.13-23.09,6.17,1.64,10.44-1.66,15.07-6.71,6.91-7.55,14.34-18.84,27.55-8.8,4,3.55,8,2.09,12.25.29-1.35,2.72-3.72,4.76-4.82,7.58-6.44,4.62-12.67,9.44-20,12.8A18.18,18.18,0,0,0,1739,193.94c.52,9.43,3.57,18.73,5.54,28.08,8.72-11.43,18.37-20.12,30.69-26.27,3.38-1.69,5.14-6.86,4.7-12.16-1.32-15.93,1.11-19.36,15.65-21.71,8.72-1.42,19.27,1.33,26.18-2.66a91.84,91.84,0,0,1,43.71-12.44c-5.71-11.18.76-16.46,7.9-21.44,10.27,1.93,20.33,4.57,30.48,9.37,3.09-7.2,9.34-10.2,16.2-14.5C1907.74,118.05,1896.41,115.38,1885.73,110.2Zm-768.72,14,.12-.18.14.14-.26,0c-10.92,16.47-21.54,15.85-33.33-3C1095.45,119.15,1106,126.16,1117,124.22Zm-30.73,140.44c3.93-11.53,9.33-17.92,20.32-16.21.5,5.74-4.63,6.26-7.54,9.69,6.84,8.68,19,10.94,26,20.6-6.14,12.34-16.09,9.75-25,5.74-9.6-4.35-17.94-5.83-28-.83-8.17,4.05-16.32,1.23-21.79-6.64C1066.52,246.92,1072.1,244.59,1086.28,264.66Zm-52.82,80.94c-17.89-9-18.54-7.74-28.29,9.39-16-.89-25.9-17.07-42.3-18-3.53-.2-5-5.07-3.66-9.82,1.45-5.18-1-10.06-3.93-15.29-14.06-1.28-28,2.54-42,3-12.78.4-23.85,14.64-41.68,3.88,16.47-4.37,25.4-10.64,31.31-25.15,3.69-9,13.38-23.27,29.85-22.33,6.55.38,11.26-6.76,20-6.7,5.18,15.64,23,18.87,33.13,30.78,4.61,5.34.47,8-3.89,11.1,5.22-2.39,7.89-5.82,8.06-11,1.18-4,4.46-4,7.72-4-6.28-11.19-21.33-11.59-27.86-23.32-2.93-5.29-3.68-7.54,1.91-11.33,10,6.1,16.08,18.11,29.09,21.06,5.61,1.27,4.94,8.4,4.34,13.71l12.35,16.59c7-2.62,14.62.8,21.69-1.53-7-2.32-12.58-5.69-9.73-15.36,3-4.45,6.46-4.33,9.35-.19,3.39,4.86,6.62,9.95,6.43,16.3h0c1.3,4.88.82,10.44,9.37,9.21,11.78-1.7,23.82,2.63,35.58-1.5,7.17,11.84,0,21.15-3.06,30.72-.64,2-4.24,4.69-6,4.36C1065.49,347.2,1049.34,353.61,1033.46,345.6Zm47.6,29.74c5.81-5.8,9.42-4.46,12.2.46,3.86,6.84,9,13.42,11,20.81,6.37,23.67,28.11,40.9,28.27,70.34C1099.39,442.31,1099.81,403.48,1081.06,375.34Zm108-63c-4.29,4.1-9.71,4.05-14.61,1.19-3.3-1.93-6-4.94-9.2-7.69,1.55-7.78,6.12-15.13-.29-22.56-5.08-5.89-9.8-12.29-11.27-21.58,18-13.39,19.08-13.73,34.44-10.89-2.61,6.72-11.45,7.23-13.51,14.86,3.11,7.42,10.45,11.82,17.19,16.47-.51,6.23-11.94,9.76-3.49,16.86C1193.56,303.32,1193.71,307.9,1189.1,312.3Z"/><path class="cls-1" d="M990,295.45c6.76,6.26.63,9.25-3.58,11.47-5.92,3.12-12.75,8.73-18.38-1.14,4.75-5.87,17.68,2.68,17.79-10.44Z"/><path class="cls-1" d="M388.13,88.13c-3.18-16.34-1.87-17.2,21.7-14.27.08,11.45-18.48.64-16.81,14.13Z"/><path class="cls-1" d="M305.93,108c-5.24-.13-10.51-.88-15.76-1.2C295.41,108.54,300.67,108.2,305.93,108Z"/><path class="cls-1" d="M311.14,107.85l1.37,0,.23-.2C312.21,107.76,311.68,107.81,311.14,107.85Z"/><path class="cls-1" d="M312.87,107.68c-.12.07-.24.13-.36.21l8.34.31a7.11,7.11,0,0,0-2.88-1.53A35.11,35.11,0,0,1,312.87,107.68Z"/><path class="cls-1" d="M581.7,196.54c-3-3-10.24-2.51-11.75-8.45-2.69-10.58-11.83-16.81-16-26.17a9.44,9.44,0,0,0-2.39,1.07c-13.68,13.41-17.48,13-25.89-3.79-1.54-3.08-3.8-2.66-5.81-3.82-11.11-6.44-23.24-8-35.78-7.9-7.64,13.84-4.91,26.79,4,38-2.56,7.92-9.95,7.9-14.52,12.78-2.38,6.07,6.75,13-.83,20.65-14.28.6-15.84-11.05-18.12-22.46-17.46-1.07-30.63-14.63-48.84-14.32-6.75.12-7.32-13.1-17.39-12.44,2.05-13.74,8.33-22,19.48-27,7.08-3.17,14-6.8,20.92-10.22a5.34,5.34,0,0,1,3.52-.49c2.82-4.5,6.7-8.12,10.42-11.86,2.78-5.82,7.74-11.73-.93-16.92-20,5.57-32.2-9.92-47.32-17.44a17,17,0,0,0-5.59-.41c-4,.83-7.12,2.75-8.37,6.93.45,9.08-6.18,7.81-11.78,8-1.69,5.11,4.6,7,4.82,11.67H344.88c-8.17-.21-15.55-5.5-24-3.74-.32,4.23-1.48,9-6.72,6.64-10.89-5-22.13-1.26-33.08-2.69.06-2.18.34-4.55,1.33-6-5.65-1.44-11.85,1.61-17.27-1.78a29.13,29.13,0,0,0-22.91-3.73,36.88,36.88,0,0,1-21.13-1.18c-14-4.69-27-2.32-39.23,3.36a24.55,24.55,0,0,1-16.31,2.2c-21.94-3.64-43.38-11.14-66.17-9.11-8.49.75-16.79-1-25.3-2.84C49.73,88,27.7,94.41,7.42,109.78,14.13,114,22.48,113.5,27,126.2c-11.71-7.61-19.23-4.54-27,.19,9.09,12.12,20.83,8.72,32.58,7.31-6.12,11.42-22,6.1-25.95,20,16.28,3.55,24.39,21.45,42.19,19.86.73,9.87-8.75,8.7-11.07,14.06-.78,3.53,0,5.46,4.07,3.9,12.76-9.79,29.25-14.67,37.95-29.61,12.26,13.55,15.87-5.8,25.53-5.54,11.53,5.83,25.33,6.82,38.76,9.51,16.09,3.23,31.8,7.52,37.31,26.1,4.87,4.53,10.84,7.6,15.87,11.91,12,6,13.38,20.87,23.25,28.4,12.15,9.27,14.94,21.3,10.8,34.8-8.16,26.65,9.1,45,23.35,61.42,8.47,9.77,17.58,18.38,22.71,30.47,2.3,1.51,4.22.21,6.17-.92,7.29-1.17,7.52,7.91,13.22,9.12,14.13,17.32,33.7,31.1,36.34,56a8.17,8.17,0,0,0,3.05,4.95c13.69,10.55,28.39,20.47,45.66,21.9,7.57.63,13.67.07,18.63,6.41a19.62,19.62,0,0,0,11.66,7c11.36,2.57,19.42,8.17,25.25,19.58a36.6,36.6,0,0,0,28.75,20.22c-12.64-10.24-15.76-23.27-14.15-38.13,1.36-12.54-7.31-15.87-17.13-16.88-3.37-.35-7.25,4.16-10.51-2.16,3.3-10.19,5.77-21.25,5.07-33.81-8.15,2.28-15.56,1.26-17.83,11.21-1.86,8.18-10.27,10.5-17.34,10.75-7.83.27-12.74-5.43-16.16-12.61-6-12.67-5.43-25-2-38.41,4.11-15.9,14.55-25.22,30.35-22.24,4.93.92,8,.7,12.54-1.62,15.94-8.05,31-1.43,37.24,14.67,2.15,5.51,2.51,12.55,9,16.35,4.53-7.22,4.79-15,1.58-19.91-10.66-16.21-2.29-25.46,10-34.43,4.69-3.42,8.82-7.61,12.81-11.11q-1.73-11.42-3.17-20.92c4.41-5.15,5.49,1.74,9.09,1,2.12-12,15.28-15.59,20.67-24.53,7.73-12.81,18.06-18.29,31.49-20.72,4,1.06,5.27-.48,4.23-4.32-.89-6.8-1.78-13.61-2.34-17.87-2.89-7.47-9.7,1.1-11.39-5.66,7-6.94,15.16-4,22.67-3.9,10,.12,19.39-1,26.81-8.58,2.55-1.79,6.24-.58,8.44-3.26C602.86,201.37,587.27,202.06,581.7,196.54Z"/><path class="cls-1" d="M559.51,16.28a345.8,345.8,0,0,0-87.2-2c-7.47.74-13.69,3.23-20.12,6.19-.53,5.75,2.26,7.26,5.64,8a21.67,21.67,0,0,0,6.34-.06c5.49-2.62,11-4.85,19.24-3,.52-.15,1-.29,1.56-.47-1.06-2.43,2.07.18-.55.62l-.18,0a36.48,36.48,0,0,1,3.8,1.2c-15.45,2-26.26,10.72-39.69,5.67a8.28,8.28,0,0,1,2.55-2.83c-1-.08-2.08-.17-3.13-.29a18.37,18.37,0,0,0-12.5,10.19C429,50,416.15,44.82,407.86,51.36c-5.34,4.22-11.7,6.38-5.78,14.39,21.55,12.36,43.8,5.39,65.91,2.3,3.71-11.58,16.93-17.92,17.24-31.21,10.27-1.72,21,2.18,31-3.1,12.38-6.58,24.25-6.13,35.45,2.75,5.25-5.31,6.65-14.47,15.83-15.82C566,17,562.8,16.79,559.51,16.28ZM416.87,59.11c17.6-4.7,30.91-1.93,44.15-1.4C448,59.6,435.47,66.67,416.87,59.11Z"/><path class="cls-1" d="M356.69,64.34l-5.79-5.46c7.43-8.85,14-2.12,22-.57-4.51,9-11,5.33-16.21,6Z"/><path class="cls-1" d="M79.94,441.13a4.16,4.16,0,0,0-5.21,3.12,15.84,15.84,0,0,0,1.52,10.52c4.15,8.3,4.15,1,10.37-8.29C88.27,444,83.54,442.15,79.94,441.13Z"/></svg>